<svg width="392" height="392" viewBox="0 0 392 392" fill="none" xmlns="http://www.w3.org/2000/svg">
<path d="M186.344 104H144C139.757 104 135.687 105.686 132.686 108.686C129.686 111.687 128 115.757 128 120V216C128 220.243 129.686 224.313 132.686 227.314C135.687 230.314 139.757 232 144 232H208C212.243 232 216.313 230.314 219.314 227.314C222.314 224.313 224 220.243 224 216V141.656C224 139.534 223.156 137.5 221.656 136L192 106.344C190.5 104.844 188.466 104 186.344 104V104ZM188 132V116L212 140H196C193.878 140 191.843 139.157 190.343 137.657C188.843 136.157 188 134.122 188 132ZM200 157.12V171.12L184 175.12V204C184 207.96 181.592 211.064 178.704 212.984C175.792 214.928 171.992 216 168 216C164 216 160.208 214.928 157.296 212.984C154.416 211.064 152 207.96 152 204C152 200.04 154.408 196.936 157.296 195.016C160.208 193.072 164.008 192 168 192C170.848 192 173.6 192.544 176 193.568V159.12C176 157.337 176.596 155.604 177.693 154.198C178.79 152.792 180.326 151.793 182.056 151.36L190.056 149.36C191.236 149.065 192.467 149.042 193.657 149.294C194.846 149.545 195.963 150.065 196.922 150.813C197.88 151.561 198.656 152.518 199.189 153.611C199.723 154.704 200 155.904 200 157.12V157.12Z" fill="white"/>
<path d="M387.75 387.75L297.656 297.495L387.75 387.75ZM347.583 176.875C347.583 222.15 329.598 265.57 297.584 297.584C265.57 329.598 222.15 347.583 176.875 347.583C131.6 347.583 88.1798 329.598 56.1658 297.584C24.1518 265.57 6.1665 222.15 6.1665 176.875C6.1665 131.6 24.1518 88.1798 56.1658 56.1658C88.1798 24.1518 131.6 6.1665 176.875 6.1665C222.15 6.1665 265.57 24.1518 297.584 56.1658C329.598 88.1798 347.583 131.6 347.583 176.875V176.875Z" stroke="white" stroke-width="10.6667" stroke-linecap="round"/>
</svg>
