<svg width="719" height="435" viewBox="0 0 719 435" fill="none" xmlns="http://www.w3.org/2000/svg">
<path d="M633.667 250H708.333M623 186H719H623ZM644.333 218H697.667H644.333Z" stroke="white" stroke-width="10.6667" stroke-linecap="round"/>
<path d="M526.333 180.667L563.666 218L526.333 255.333M478.333 218H563.666H478.333Z" stroke="white" stroke-width="10.6667" stroke-linecap="round" stroke-linejoin="round"/>
<path d="M36.25 131.406C36.25 115.783 42.4562 100.8 53.5032 89.7532C64.5503 78.7062 79.5333 72.5 95.1562 72.5H339.844C347.579 72.5 355.239 74.0237 362.386 76.984C369.533 79.9443 376.027 84.2833 381.497 89.7532C386.967 95.2232 391.306 101.717 394.266 108.864C397.226 116.011 398.75 123.671 398.75 131.406V303.594C398.75 311.329 397.226 318.989 394.266 326.136C391.306 333.283 386.967 339.777 381.497 345.247C376.027 350.717 369.533 355.056 362.386 358.016C355.239 360.976 347.579 362.5 339.844 362.5H95.1562C79.5333 362.5 64.5503 356.294 53.5032 345.247C42.4562 334.2 36.25 319.217 36.25 303.594V131.406ZM95.1562 99.6875C86.7439 99.6875 78.6761 103.029 72.7277 108.978C66.7793 114.926 63.4375 122.994 63.4375 131.406V303.594C63.4375 321.103 77.6475 335.313 95.1562 335.313H339.844C348.256 335.313 356.324 331.971 362.272 326.022C368.221 320.074 371.562 312.006 371.562 303.594V131.406C371.562 122.994 368.221 114.926 362.272 108.978C356.324 103.029 348.256 99.6875 339.844 99.6875H95.1562Z" fill="white"/>
<path d="M157.328 155.784C156.963 155.236 156.468 154.787 155.887 154.476C155.307 154.165 154.658 154.003 154 154.003C153.341 154.003 152.693 154.165 152.113 154.476C151.532 154.787 151.037 155.236 150.672 155.784L126.672 191.784C126.271 192.386 126.041 193.086 126.007 193.809C125.972 194.531 126.134 195.25 126.476 195.888C126.817 196.526 127.325 197.059 127.946 197.431C128.566 197.803 129.276 197.999 130 198H130.784L114.608 223.88C114.229 224.485 114.02 225.181 114.001 225.895C113.982 226.609 114.155 227.314 114.501 227.939C114.847 228.563 115.354 229.084 115.97 229.446C116.585 229.809 117.286 230 118 230H119.528L106.424 256.208C106.118 256.818 105.974 257.496 106.004 258.177C106.034 258.858 106.238 259.521 106.596 260.101C106.955 260.682 107.456 261.161 108.051 261.493C108.647 261.825 109.318 262 110 262H146V282H162V262H198C198.682 262 199.353 261.825 199.948 261.493C200.544 261.161 201.045 260.682 201.403 260.101C201.762 259.521 201.966 258.858 201.996 258.177C202.026 257.496 201.881 256.818 201.576 256.208L188.48 230H190.008C190.722 230 191.423 229.809 192.038 229.446C192.653 229.084 193.16 228.563 193.506 227.939C193.853 227.314 194.025 226.609 194.007 225.895C193.988 225.181 193.778 224.485 193.4 223.88L177.216 198H178C178.723 197.999 179.433 197.803 180.054 197.431C180.675 197.059 181.183 196.526 181.524 195.888C181.866 195.25 182.028 194.531 181.993 193.809C181.959 193.086 181.729 192.386 181.328 191.784L157.328 155.784V155.784ZM141.496 192.064C141.15 191.439 140.644 190.918 140.029 190.555C139.414 190.192 138.714 190.001 138 190H137.472L154 165.208L170.528 190H170C169.286 190 168.585 190.191 167.97 190.553C167.354 190.916 166.847 191.436 166.501 192.061C166.155 192.685 165.982 193.391 166.001 194.105C166.02 194.819 166.229 195.514 166.608 196.12L182.784 222H182C181.318 222 180.647 222.174 180.051 222.507C179.456 222.839 178.955 223.318 178.596 223.898C178.238 224.479 178.034 225.141 178.004 225.823C177.974 226.504 178.118 227.182 178.424 227.792L191.52 254H116.472L129.576 227.792C129.881 227.182 130.026 226.504 129.996 225.823C129.966 225.141 129.762 224.479 129.403 223.898C129.045 223.318 128.544 222.839 127.948 222.507C127.353 222.174 126.682 222 126 222H125.216L141.392 196.12C141.769 195.514 141.978 194.819 141.996 194.106C142.015 193.393 141.842 192.688 141.496 192.064V192.064Z" fill="white"/>
<path d="M244.667 250H319.333M234 186H330H234ZM255.333 218H308.667H255.333Z" stroke="white" stroke-width="10.6667" stroke-linecap="round"/>
</svg>
