<svg width="600" height="241" viewBox="0 0 600 241" fill="none" xmlns="http://www.w3.org/2000/svg">
<path d="M50.2083 210.875H190.792C196.118 210.875 201.226 208.759 204.993 204.993C208.759 201.226 210.875 196.118 210.875 190.792V50.2083C210.875 44.8819 208.759 39.7736 204.993 36.0073C201.226 32.2409 196.118 30.125 190.792 30.125H50.2083C44.8819 30.125 39.7736 32.2409 36.0073 36.0073C32.2409 39.7736 30.125 44.8819 30.125 50.2083V190.792C30.125 196.118 32.2409 201.226 36.0073 204.993C39.7736 208.759 44.8819 210.875 50.2083 210.875ZM80.3333 140.583L104.062 164.312L140.583 110.458L190.792 180.75H50.2083L80.3333 140.583Z" fill="white"/>
<path d="M456.708 165.75H562.292M441.625 75.25H577.375H441.625ZM471.792 120.5H547.208H471.792Z" stroke="white" stroke-width="10.6667" stroke-linecap="round"/>
<path d="M335.333 83.6665L372.666 121L335.333 158.333M287.333 121H372.666H287.333Z" stroke="white" stroke-width="10.6667" stroke-linecap="round" stroke-linejoin="round"/>
</svg>
