<svg width="533" height="533" viewBox="0 0 533 533" fill="none" xmlns="http://www.w3.org/2000/svg">
<path d="M111.042 377.542H88.8332C77.0531 377.542 65.7556 372.862 57.4258 364.532C49.0961 356.203 44.4165 344.905 44.4165 333.125V111.042C44.4165 99.2616 49.0961 87.9641 57.4258 79.6343C65.7556 71.3046 77.0531 66.625 88.8332 66.625H444.167C455.947 66.625 467.244 71.3046 475.574 79.6343C483.904 87.9641 488.583 99.2616 488.583 111.042V333.125C488.583 344.905 483.904 356.203 475.574 364.532C467.244 372.862 455.947 377.542 444.167 377.542H421.958" stroke="white" stroke-width="10.6667" stroke-linecap="round" stroke-linejoin="round"/>
<path d="M266.5 355.333L399.75 466.375H133.25L266.5 355.333Z" stroke="white" stroke-width="10.6667" stroke-linecap="round" stroke-linejoin="round"/>
<path d="M227.875 254.675L224.913 249.5C224.779 249.272 224.561 249.106 224.306 249.038C224.051 248.97 223.779 249.006 223.55 249.138L217.213 252.838L207.425 225.813C206.908 224.2 205.892 222.794 204.524 221.796C203.156 220.798 201.506 220.261 199.813 220.263H145.65C141.313 220.263 137.463 223.063 136.125 227.2L126.8 252.85L120.45 249.15C120.221 249.018 119.949 248.983 119.694 249.05C119.439 249.118 119.221 249.285 119.088 249.513L116.125 254.675C115.85 255.15 116.013 255.75 116.488 256.025L124.038 260.425L122.225 265.425C122.075 265.825 122 266.25 122 266.675V310.2C122 312.163 123.475 313.75 125.288 313.75H133.738C135.275 313.75 136.613 312.588 136.938 310.963L137.9 306.25H206.1L207.063 310.963C207.4 312.588 208.725 313.75 210.263 313.75H218.713C220.525 313.75 222 312.163 222 310.2V266.675C222 266.25 221.925 265.825 221.775 265.425L219.963 260.425L227.5 256.025C227.727 255.894 227.893 255.679 227.963 255.427C228.034 255.174 228.002 254.904 227.875 254.675V254.675ZM141 280.625C138.238 280.625 136 278.388 136 275.625C136 272.863 138.238 270.625 141 270.625C143.763 270.625 146 272.863 146 275.625C146 278.388 143.763 280.625 141 280.625ZM189.5 290C189.5 290.55 189.05 291 188.5 291H155.5C154.95 291 154.5 290.55 154.5 290V279.5C154.5 278.95 154.95 278.5 155.5 278.5H160.5C161.05 278.5 161.5 278.95 161.5 279.5V284H182.5V279.5C182.5 278.95 182.95 278.5 183.5 278.5H188.5C189.05 278.5 189.5 278.95 189.5 279.5V290ZM203 280.625C200.238 280.625 198 278.388 198 275.625C198 272.863 200.238 270.625 203 270.625C205.763 270.625 208 272.863 208 275.625C208 278.388 205.763 280.625 203 280.625ZM135.5 255.25L144.588 230.263L144.65 230.1L144.7 229.938C144.838 229.525 145.213 229.25 145.65 229.25H199.1L208.525 255.25H135.5Z" fill="white"/>
<path d="M238.5 191.125H104.5C95.2624 191.125 87.75 198.637 87.75 207.875V325.125C87.75 334.363 95.2624 341.875 104.5 341.875H238.5C247.738 341.875 255.25 334.363 255.25 325.125V207.875C255.25 198.637 247.738 191.125 238.5 191.125ZM104.5 325.125V207.875H238.5L238.508 325.125H104.5Z" fill="white"/>
<path d="M434.5 97.125H300.5C291.262 97.125 283.75 104.637 283.75 113.875V231.125C283.75 240.363 291.262 247.875 300.5 247.875H434.5C443.738 247.875 451.25 240.363 451.25 231.125V113.875C451.25 104.637 443.738 97.125 434.5 97.125ZM300.5 231.125V113.875H434.5L434.508 231.125H300.5Z" fill="white"/>
<path d="M421.875 160.675L418.913 155.5C418.779 155.272 418.561 155.106 418.306 155.038C418.051 154.97 417.779 155.006 417.55 155.138L411.213 158.838L401.425 131.813C400.908 130.2 399.892 128.794 398.524 127.796C397.156 126.798 395.506 126.261 393.813 126.263H339.65C335.313 126.263 331.463 129.063 330.125 133.2L320.8 158.85L314.45 155.15C314.221 155.018 313.949 154.983 313.694 155.05C313.439 155.118 313.221 155.285 313.088 155.513L310.125 160.675C309.85 161.15 310.013 161.75 310.488 162.025L318.038 166.425L316.225 171.425C316.075 171.825 316 172.25 316 172.675V216.2C316 218.163 317.475 219.75 319.288 219.75H327.738C329.275 219.75 330.613 218.588 330.938 216.963L331.9 212.25H400.1L401.063 216.963C401.4 218.588 402.725 219.75 404.263 219.75H412.713C414.525 219.75 416 218.163 416 216.2V172.675C416 172.25 415.925 171.825 415.775 171.425L413.963 166.425L421.5 162.025C421.727 161.894 421.893 161.679 421.963 161.427C422.034 161.174 422.002 160.904 421.875 160.675V160.675ZM335 186.625C332.238 186.625 330 184.388 330 181.625C330 178.863 332.238 176.625 335 176.625C337.763 176.625 340 178.863 340 181.625C340 184.388 337.763 186.625 335 186.625ZM383.5 196C383.5 196.55 383.05 197 382.5 197H349.5C348.95 197 348.5 196.55 348.5 196V185.5C348.5 184.95 348.95 184.5 349.5 184.5H354.5C355.05 184.5 355.5 184.95 355.5 185.5V190H376.5V185.5C376.5 184.95 376.95 184.5 377.5 184.5H382.5C383.05 184.5 383.5 184.95 383.5 185.5V196ZM397 186.625C394.238 186.625 392 184.388 392 181.625C392 178.863 394.238 176.625 397 176.625C399.763 176.625 402 178.863 402 181.625C402 184.388 399.763 186.625 397 186.625ZM329.5 161.25L338.588 136.263L338.65 136.1L338.7 135.938C338.838 135.525 339.213 135.25 339.65 135.25H393.1L402.525 161.25H329.5Z" fill="white"/>
</svg>
