<svg width="533" height="533" viewBox="0 0 533 533" fill="none" xmlns="http://www.w3.org/2000/svg">
<path d="M111.042 377.542H88.8332C77.0531 377.542 65.7556 372.862 57.4258 364.532C49.0961 356.203 44.4165 344.905 44.4165 333.125V111.042C44.4165 99.2616 49.0961 87.9641 57.4258 79.6343C65.7556 71.3046 77.0531 66.625 88.8332 66.625H444.167C455.947 66.625 467.244 71.3046 475.574 79.6343C483.904 87.9641 488.583 99.2616 488.583 111.042V333.125C488.583 344.905 483.904 356.203 475.574 364.532C467.244 372.862 455.947 377.542 444.167 377.542H421.958" stroke="white" stroke-width="10.6667" stroke-linecap="round" stroke-linejoin="round"/>
<path d="M266.5 355.333L399.75 466.375H133.25L266.5 355.333Z" stroke="white" stroke-width="10.6667" stroke-linecap="round" stroke-linejoin="round"/>
<path d="M338.75 147H204.75C195.512 147 188 154.512 188 163.75V281C188 290.238 195.512 297.75 204.75 297.75H338.75C347.988 297.75 355.5 290.238 355.5 281V163.75C355.5 154.512 347.988 147 338.75 147ZM204.75 281V163.75H338.75L338.758 281H204.75Z" fill="white"/>
<path d="M276.136 211.177C275.592 210.516 275.315 209.675 275.357 208.82C275.399 207.965 275.757 207.156 276.363 206.551C276.968 205.945 277.777 205.587 278.632 205.545C279.487 205.503 280.328 205.78 280.989 206.323L291.208 216.542L291.421 216.755L291.506 216.883L291.634 217.053C291.634 217.096 291.677 217.138 291.719 217.181L291.804 217.309V217.479L291.889 217.607C291.889 217.692 291.932 217.734 291.932 217.777L292.017 217.947V218.075C292.046 218.127 292.061 218.186 292.06 218.245C292.094 218.311 292.109 218.385 292.102 218.458C292.1 218.481 292.103 218.505 292.11 218.526C292.118 218.548 292.129 218.569 292.145 218.586V219.267C292.129 219.284 292.118 219.305 292.11 219.327C292.103 219.349 292.1 219.372 292.102 219.395C292.109 219.469 292.094 219.542 292.06 219.608C292.061 219.667 292.046 219.726 292.017 219.778V219.906L291.932 220.076C291.932 220.119 291.889 220.161 291.889 220.247L291.804 220.374V220.545L291.719 220.672C291.677 220.715 291.634 220.757 291.634 220.8L291.506 220.97L291.421 221.098L291.208 221.311L280.989 231.53C280.338 232.159 279.468 232.511 278.562 232.511C277.657 232.511 276.787 232.159 276.136 231.53C275.496 230.884 275.137 230.012 275.137 229.103C275.137 228.194 275.496 227.322 276.136 226.676L280.564 222.375H264.937C263.131 222.375 261.398 223.093 260.12 224.371C258.843 225.648 258.125 227.381 258.125 229.188V232.594C258.125 233.498 257.766 234.364 257.127 235.003C256.488 235.642 255.622 236 254.719 236C253.815 236 252.949 235.642 252.31 235.003C251.671 234.364 251.312 233.498 251.312 232.594V229.188C251.324 225.578 252.763 222.119 255.316 219.566C257.868 217.013 261.327 215.574 264.937 215.563H280.564L276.136 211.177ZM321.141 227.187L276.561 271.766C275.932 272.402 275.182 272.907 274.357 273.251C273.531 273.596 272.645 273.773 271.75 273.773C270.855 273.773 269.969 273.596 269.143 273.251C268.317 272.907 267.568 272.402 266.939 271.766L222.359 227.187C221.096 225.904 220.387 224.176 220.387 222.375C220.387 220.575 221.096 218.847 222.359 217.564L266.939 172.985C267.568 172.349 268.317 171.844 269.143 171.499C269.969 171.155 270.855 170.978 271.75 170.978C272.645 170.978 273.531 171.155 274.357 171.499C275.182 171.844 275.932 172.349 276.561 172.985L321.141 217.564C322.404 218.847 323.113 220.575 323.113 222.375C323.113 224.176 322.404 225.904 321.141 227.187V227.187ZM316.329 222.375L271.75 177.796L227.171 222.375L271.75 266.955L316.329 222.375Z" fill="white"/>
</svg>
